<?xml version="1.0" encoding="UTF-8" standalone="no"?>
<svg
   xmlns:dc="http://purl.org/dc/elements/1.1/"
   xmlns:cc="http://creativecommons.org/ns#"
   xmlns:rdf="http://www.w3.org/1999/02/22-rdf-syntax-ns#"
   xmlns:svg="http://www.w3.org/2000/svg"
   xmlns="http://www.w3.org/2000/svg"
   xmlns:xlink="http://www.w3.org/1999/xlink"
   xmlns:sodipodi="http://sodipodi.sourceforge.net/DTD/sodipodi-0.dtd"
   xmlns:inkscape="http://www.inkscape.org/namespaces/inkscape"
   version="1.1"
   class="iconic-clock"
   x="0px"
   y="0px"
   width="384px"
   height="384px"
   viewBox="0 0 384 384"
   enable-background="new 0 0 384 384"
   xml:space="preserve"
   id="svg2"
   inkscape:version="0.48.5 r10040"
   sodipodi:docname="clock_colour.svg"><metadata
     id="metadata27"><rdf:RDF><cc:Work
         rdf:about=""><dc:format>image/svg+xml</dc:format><dc:type
           rdf:resource="http://purl.org/dc/dcmitype/StillImage" /></cc:Work></rdf:RDF></metadata><sodipodi:namedview
     pagecolor="#ffffff"
     bordercolor="#666666"
     borderopacity="1"
     objecttolerance="10"
     gridtolerance="10"
     guidetolerance="10"
     inkscape:pageopacity="0.65490196"
     inkscape:pageshadow="2"
     inkscape:window-width="1718"
     inkscape:window-height="924"
     id="namedview25"
     showgrid="false"
     inkscape:zoom="4.9166669"
     inkscape:cx="198.0646"
     inkscape:cy="279.33345"
     inkscape:window-x="2017"
     inkscape:window-y="168"
     inkscape:window-maximized="0"
     inkscape:current-layer="svg2" /><path
     sodipodi:type="arc"
     style="fill:#73bbe6;fill-opacity:1;fill-rule:nonzero;stroke:#ffffff;stroke-width:0.625;stroke-miterlimit:4;stroke-opacity:1;stroke-dasharray:none;stroke-dashoffset:0"
     id="path2993"
     sodipodi:cx="165.96609"
     sodipodi:cy="206.64407"
     sodipodi:rx="191.18643"
     sodipodi:ry="191.18643"
     d="m 357.15253,206.64407 a 191.18643,191.18643 0 1 1 -382.372867,0 191.18643,191.18643 0 1 1 382.372867,0 z"
     transform="matrix(1.0026166,0,0,1.0026166,25.599638,-15.184778)" /><path
     inkscape:connector-curvature="0"
     class="iconic-clock-frame"
     d="M 192,6.5 C 89.550862,6.5 6.5,89.550862 6.5,192 6.5,294.44914 89.550862,377.5 192,377.5 294.44914,377.5 377.5,294.44914 377.5,192 377.5,89.550862 294.44914,6.5 192,6.5 z m 118.87167,304.37167 c -9.13394,9.13396 -19.13837,17.08051 -29.81912,23.7759 l -14.469,-25.06086 -10.04403,5.79688 14.48155,25.08501 c -22.37208,11.94446 -47.28994,18.6582 -73.22613,19.53161 V 331.125 h -11.59375 v 28.87521 c -25.93617,-0.87245 -50.85405,-7.58812 -73.22709,-19.53258 l 14.48157,-25.08404 -10.04115,-5.79688 -14.469,25.05989 C 92.264766,327.95024 82.260326,320.00563 73.126382,310.87167 63.99244,301.73773 56.045891,291.7333 49.349533,281.05255 l 25.060858,-14.469 -5.796875,-10.04403 -25.082111,14.48252 C 31.586943,248.6519 24.873195,223.73402 23.999799,197.79687 H 52.875 V 186.20312 H 23.999799 c 0.873396,-25.93521 7.587144,-50.85211 19.531606,-73.22516 l 25.081144,14.48059 5.80074,-10.04307 -25.060857,-14.46803 C 56.048789,92.266699 63.995338,82.262257 73.129281,73.128315 82.263224,63.994373 92.267664,56.047824 102.94841,49.351467 l 14.469,25.060857 10.04307,-5.796875 L 112.977,43.53237 C 135.35004,31.586943 160.26695,24.873195 186.20312,23.999799 V 52.875 h 11.59375 V 23.999799 c 25.93715,0.873396 50.85309,7.587144 73.22613,19.531606 L 256.53952,68.61738 266.58259,74.414255 281.05352,49.3505 c 10.68172,6.696357 20.68519,14.642906 29.82009,23.777815 9.13394,9.133942 17.0805,19.137417 23.77493,29.818165 l -25.06183,14.469 5.79688,10.04404 25.08597,-14.48252 c 11.94446,22.37304 18.6582,47.29091 19.53354,73.22612 H 331.125 v 11.59375 h 28.87521 c -0.87341,25.93618 -7.58715,50.85406 -19.53161,73.22613 l -25.08501,-14.48155 -5.79881,10.04403 25.06279,14.47094 c -6.69636,10.67785 -14.64194,20.68131 -23.7759,29.81525 z"
     id="path4"
     style="fill:#ffffff;fill-opacity:1" /><line
     class="iconic-clock-hour-hand"
     id="foo"
     stroke-miterlimit="10"
     x1="192"
     y1="192"
     x2="192"
     y2="97.487686"
     style="fill:none;stroke:#ffffff;stroke-width:16.27963257;stroke-miterlimit:10;stroke-opacity:1" /><line
     class="iconic-clock-minute-hand"
     id="iconic-anim-clock-minute-hand"
     stroke-miterlimit="10"
     x1="192"
     y1="192"
     x2="192"
     y2="62.764786"
     style="fill:none;stroke:#ffffff;stroke-width:11.23784447;stroke-miterlimit:10;stroke-opacity:1" /><circle
     sodipodi:ry="9"
     sodipodi:rx="9"
     sodipodi:cy="192"
     sodipodi:cx="192"
     class="iconic-clock-axis"
     cx="192"
     cy="192"
     r="9"
     id="circle8"
     style="fill:#ffffff;fill-opacity:1" /><g
     class="iconic-clock-second-hand"
     id="iconic-anim-clock-second-hand"><line
       style="fill:none;stroke:#d53a1f;stroke-width:4;stroke-miterlimit:10"
       class="iconic-clock-second-hand-arm"
       stroke-miterlimit="10"
       x1="192"
       y1="192"
       x2="192"
       y2="28.5"
       id="line11" /><circle
       style="fill:#d53a1f"
       sodipodi:ry="4.5"
       sodipodi:rx="4.5"
       sodipodi:cy="192"
       sodipodi:cx="192"
       class="iconic-clock-second-hand-axis"
       cx="192"
       cy="192"
       r="4.5"
       id="circle13" /></g><defs
     id="defs15"><animateTransform
       type="rotate"
       fill="remove"
       restart="always"
       calcMode="linear"
       accumulate="none"
       additive="sum"
       xlink:href="#iconic-anim-clock-hour-hand"
       repeatCount="indefinite"
       dur="43200s"
       to="360 192 192"
       from="0 192 192"
       attributeName="transform"
       attributeType="xml"
       id="animateTransform17" /><animateTransform
       type="rotate"
       fill="remove"
       restart="always"
       calcMode="linear"
       accumulate="none"
       additive="sum"
       xlink:href="#iconic-anim-clock-minute-hand"
       repeatCount="indefinite"
       dur="3600s"
       to="360 192 192"
       from="0 192 192"
       attributeName="transform"
       attributeType="xml"
       id="animateTransform19" /><animateTransform
       type="rotate"
       fill="remove"
       restart="always"
       calcMode="linear"
       accumulate="none"
       additive="sum"
       xlink:href="#iconic-anim-clock-second-hand"
       repeatCount="indefinite"
       dur="60s"
       to="360 192 192"
       from="0 192 192"
       attributeName="transform"
       attributeType="xml"
       id="animateTransform21" /></defs><script
     type="text/javascript"
     id="script23">
      var date = new Date;
      var seconds = date.getSeconds();
      var minutes = date.getMinutes();
      var hours = date.getHours();
      hours = (hours &gt; 12) ? hours - 12 : hours;

      minutes = (minutes * 60) + seconds;
      hours = (hours * 3600) + minutes;

      document.querySelector('.iconic-clock-second-hand').setAttribute('transform', 'rotate('+360*(seconds/60)+',192,192)');
      document.querySelector('.iconic-clock-minute-hand').setAttribute('transform', 'rotate('+360*(minutes/3600)+',192,192)');
      document.querySelector('.iconic-clock-hour-hand').setAttribute('transform', 'rotate('+360*(hours/43200)+',192,192)');
  </script></svg>